<?xml version="1.0" encoding="UTF-8"?>
<svg width="700pt" height="700pt" version="1.1" viewBox="0 0 700 700" xmlns="http://www.w3.org/2000/svg" xmlns:xlink="http://www.w3.org/1999/xlink">
 <defs>
  <symbol id="v" overflow="visible">
   <path d="m19.547-1.1719c-1.0117 0.52344-2.0625 0.91406-3.1562 1.1719-1.0938 0.26953-2.2344 0.40625-3.4219 0.40625-3.543 0-6.3516-0.98828-8.4219-2.9688-2.0625-1.9766-3.0938-4.6602-3.0938-8.0469 0-3.4062 1.0312-6.0977 3.0938-8.0781 2.0703-1.9766 4.8789-2.9688 8.4219-2.9688 1.1875 0 2.3281 0.13672 3.4219 0.40625 1.0938 0.26172 2.1445 0.65625 3.1562 1.1875v4.3906c-1.0234-0.6875-2.0273-1.1914-3.0156-1.5156-0.98047-0.32031-2.0156-0.48438-3.1094-0.48438-1.9609 0-3.5 0.625-4.625 1.875-1.1172 1.25-1.6719 2.9805-1.6719 5.1875 0 2.1875 0.55469 3.9141 1.6719 5.1719 1.125 1.25 2.6641 1.875 4.625 1.875 1.0938 0 2.1289-0.16016 3.1094-0.48438 0.98828-0.32031 1.9922-0.82812 3.0156-1.5156z"/>
  </symbol>
  <symbol id="b" overflow="visible">
   <path d="m14.297-11.609c-0.44922-0.20703-0.89062-0.35938-1.3281-0.45312-0.4375-0.10156-0.88281-0.15625-1.3281-0.15625-1.3125 0-2.3242 0.42188-3.0312 1.2656-0.71094 0.83594-1.0625 2.0391-1.0625 3.6094v7.3438h-5.0938v-15.953h5.0938v2.625c0.65625-1.0508 1.4062-1.8164 2.25-2.2969 0.85156-0.47656 1.875-0.71875 3.0625-0.71875 0.17578 0 0.36328 0.011719 0.5625 0.03125 0.19531 0.011719 0.48438 0.042969 0.85938 0.09375z"/>
  </symbol>
  <symbol id="a" overflow="visible">
   <path d="m18.375-8.0156v1.4531h-11.922c0.125 1.1992 0.55469 2.0938 1.2969 2.6875 0.73828 0.59375 1.7734 0.89062 3.1094 0.89062 1.0703 0 2.1719-0.15625 3.2969-0.46875 1.125-0.32031 2.2812-0.80469 3.4688-1.4531v3.9375c-1.2109 0.46094-2.418 0.80469-3.625 1.0312-1.2109 0.22656-2.4141 0.34375-3.6094 0.34375-2.8984 0-5.1484-0.72656-6.75-2.1875-1.5938-1.4688-2.3906-3.5312-2.3906-6.1875 0-2.5938 0.78516-4.6328 2.3594-6.125 1.5703-1.5 3.7344-2.25 6.4844-2.25 2.5078 0 4.5156 0.75781 6.0156 2.2656 1.5078 1.5117 2.2656 3.5312 2.2656 6.0625zm-5.2344-1.7031c0-0.96875-0.28906-1.75-0.85938-2.3438-0.5625-0.59375-1.2969-0.89062-2.2031-0.89062-0.99219 0-1.7969 0.28125-2.4219 0.84375-0.61719 0.55469-0.99609 1.3516-1.1406 2.3906z"/>
  </symbol>
  <symbol id="e" overflow="visible">
   <path d="m9.5938-7.1719c-1.0625 0-1.8672 0.18359-2.4062 0.54688-0.53125 0.35547-0.79688 0.88281-0.79688 1.5781 0 0.64844 0.21094 1.1523 0.64062 1.5156 0.4375 0.36719 1.0391 0.54688 1.8125 0.54688 0.95703 0 1.7656-0.34375 2.4219-1.0312s0.98438-1.5469 0.98438-2.5781v-0.57812zm7.7969-1.9375v9.1094h-5.1406v-2.3594c-0.6875 0.96875-1.4609 1.6719-2.3125 2.1094-0.85547 0.4375-1.8906 0.65625-3.1094 0.65625-1.6562 0-3-0.47656-4.0312-1.4375-1.0312-0.96875-1.5469-2.2188-1.5469-3.75 0-1.875 0.64062-3.25 1.9219-4.125 1.2891-0.875 3.3164-1.3125 6.0781-1.3125h3v-0.39062c0-0.8125-0.32031-1.4062-0.95312-1.7812-0.63672-0.375-1.6328-0.5625-2.9844-0.5625-1.0859 0-2.1016 0.10938-3.0469 0.32812-0.9375 0.21875-1.8086 0.54688-2.6094 0.98438v-3.8906c1.082-0.25781 2.1758-0.45703 3.2812-0.59375 1.1016-0.14453 2.207-0.21875 3.3125-0.21875 2.875 0 4.9453 0.57031 6.2188 1.7031 1.2812 1.1367 1.9219 2.9805 1.9219 5.5312z"/>
  </symbol>
  <symbol id="d" overflow="visible">
   <path d="m8.0156-20.484v4.5312h5.2656v3.6406h-5.2656v6.7656c0 0.74219 0.14453 1.2461 0.4375 1.5156 0.30078 0.26172 0.89062 0.39062 1.7656 0.39062h2.6094v3.6406h-4.3594c-2.0234 0-3.4531-0.41406-4.2969-1.25-0.83594-0.84375-1.25-2.2734-1.25-4.2969v-6.7656h-2.5312v-3.6406h2.5312v-4.5312z"/>
  </symbol>
  <symbol id="j" overflow="visible">
   <path d="m13.297-13.625v-8.5312h5.1406v22.156h-5.1406v-2.3125c-0.69922 0.94922-1.4688 1.6406-2.3125 2.0781-0.84375 0.42578-1.8242 0.64062-2.9375 0.64062-1.9688 0-3.5859-0.77344-4.8438-2.3281-1.2617-1.5625-1.8906-3.5781-1.8906-6.0469 0-2.457 0.62891-4.4688 1.8906-6.0312 1.2578-1.5625 2.875-2.3438 4.8438-2.3438 1.1016 0 2.0781 0.22656 2.9219 0.67188 0.85156 0.4375 1.6289 1.1211 2.3281 2.0469zm-3.3594 10.328c1.0938 0 1.9258-0.39453 2.5-1.1875 0.57031-0.80078 0.85938-1.9609 0.85938-3.4844 0-1.5078-0.28906-2.6641-0.85938-3.4688-0.57422-0.80078-1.4062-1.2031-2.5-1.2031-1.0859 0-1.9141 0.40234-2.4844 1.2031-0.57422 0.80469-0.85938 1.9609-0.85938 3.4688 0 1.5234 0.28516 2.6836 0.85938 3.4844 0.57031 0.79297 1.3984 1.1875 2.4844 1.1875z"/>
  </symbol>
  <symbol id="i" overflow="visible">
   <path d="m10.938-3.2969c1.0938 0 1.9258-0.39453 2.5-1.1875 0.57031-0.80078 0.85938-1.9609 0.85938-3.4844 0-1.5078-0.28906-2.6641-0.85938-3.4688-0.57422-0.80078-1.4062-1.2031-2.5-1.2031s-1.9336 0.40234-2.5156 1.2031c-0.58594 0.80469-0.875 1.9609-0.875 3.4688 0 1.5117 0.28906 2.668 0.875 3.4688 0.58203 0.80469 1.4219 1.2031 2.5156 1.2031zm-3.3906-10.328c0.70703-0.92578 1.4883-1.6094 2.3438-2.0469 0.85156-0.44531 1.832-0.67188 2.9375-0.67188 1.9688 0 3.582 0.78125 4.8438 2.3438 1.2695 1.5625 1.9062 3.5742 1.9062 6.0312 0 2.4688-0.63672 4.4844-1.9062 6.0469-1.2617 1.5547-2.875 2.3281-4.8438 2.3281-1.1055 0-2.0859-0.21875-2.9375-0.65625-0.85547-0.4375-1.6367-1.125-2.3438-2.0625v2.3125h-5.0938v-22.156h5.0938z"/>
  </symbol>
  <symbol id="h" overflow="visible">
   <path d="m0.35938-15.953h5.0938l4.2969 10.828 3.6406-10.828h5.0938l-6.7031 17.469c-0.67969 1.7695-1.4648 3.0078-2.3594 3.7188-0.89844 0.70703-2.0781 1.0625-3.5469 1.0625h-2.9531v-3.3438h1.5938c0.86328 0 1.4922-0.14062 1.8906-0.42188 0.39453-0.27344 0.70312-0.76562 0.92188-1.4844l0.14062-0.4375z"/>
  </symbol>
  <symbol id="f" overflow="visible">
   <path d="m12.953-22.156v3.3438h-2.8281c-0.71875 0-1.2266 0.13281-1.5156 0.39062-0.28125 0.26172-0.42188 0.71484-0.42188 1.3594v1.1094h4.3594v3.6406h-4.3594v12.312h-5.0938v-12.312h-2.5312v-3.6406h2.5312v-1.1094c0-1.7383 0.48438-3.0195 1.4531-3.8438 0.96875-0.83203 2.4688-1.25 4.5-1.25z"/>
  </symbol>
  <symbol id="u" overflow="visible">
   <path d="m2.4531-15.953h5.0938v15.953h-5.0938zm0-6.2031h5.0938v4.1562h-5.0938z"/>
  </symbol>
  <symbol id="g" overflow="visible">
   <path d="m14.906-15.453v3.875c-1.0859-0.45703-2.1367-0.80078-3.1562-1.0312-1.0117-0.22656-1.9688-0.34375-2.875-0.34375-0.96875 0-1.6875 0.125-2.1562 0.375-0.46875 0.24219-0.70312 0.60938-0.70312 1.1094 0 0.40625 0.17578 0.71875 0.53125 0.9375 0.35156 0.21875 0.99219 0.38281 1.9219 0.48438l0.89062 0.14062c2.6133 0.32422 4.3672 0.86719 5.2656 1.625 0.90625 0.76172 1.3594 1.9531 1.3594 3.5781 0 1.6992-0.63281 2.9766-1.8906 3.8281-1.25 0.85547-3.1211 1.2812-5.6094 1.2812-1.0547 0-2.1406-0.085938-3.2656-0.25-1.125-0.15625-2.2812-0.39844-3.4688-0.73438v-3.875c1.0195 0.49219 2.0625 0.85938 3.125 1.1094 1.0703 0.24219 2.1602 0.35938 3.2656 0.35938 0.98828 0 1.7344-0.13281 2.2344-0.40625 0.50781-0.26953 0.76562-0.67578 0.76562-1.2188 0-0.45703-0.17969-0.79688-0.53125-1.0156-0.34375-0.22656-1.0312-0.40625-2.0625-0.53125l-0.89062-0.10938c-2.2734-0.28125-3.8672-0.80469-4.7812-1.5781-0.90625-0.76953-1.3594-1.9414-1.3594-3.5156 0-1.6875 0.57812-2.9375 1.7344-3.75 1.1562-0.82031 2.9297-1.2344 5.3281-1.2344 0.9375 0 1.9219 0.074219 2.9531 0.21875 1.0391 0.14844 2.1641 0.37109 3.375 0.67188z"/>
  </symbol>
  <symbol id="t" overflow="visible">
   <path d="m2.4531-22.156h5.0938v22.156h-5.0938z"/>
  </symbol>
  <symbol id="c" overflow="visible">
   <path d="m10.047-12.688c-1.1367 0-2 0.40625-2.5938 1.2188s-0.89062 1.9805-0.89062 3.5c0 1.5312 0.29688 2.7031 0.89062 3.5156s1.457 1.2188 2.5938 1.2188c1.1016 0 1.9453-0.40625 2.5312-1.2188 0.59375-0.8125 0.89062-1.9844 0.89062-3.5156 0-1.5195-0.29688-2.6875-0.89062-3.5-0.58594-0.8125-1.4297-1.2188-2.5312-1.2188zm0-3.6562c2.7383 0 4.8789 0.74609 6.4219 2.2344 1.5391 1.4805 2.3125 3.5273 2.3125 6.1406 0 2.625-0.77344 4.6797-2.3125 6.1562-1.543 1.4805-3.6836 2.2188-6.4219 2.2188-2.7617 0-4.918-0.73828-6.4688-2.2188-1.5547-1.4766-2.3281-3.5312-2.3281-6.1562 0-2.6133 0.77344-4.6602 2.3281-6.1406 1.5508-1.4883 3.707-2.2344 6.4688-2.2344z"/>
  </symbol>
  <symbol id="s" overflow="visible">
   <path d="m0.4375-15.953h5.1094l3.9688 11.031 3.9531-11.031h5.125l-6.2812 15.953h-5.6094z"/>
  </symbol>
  <symbol id="r" overflow="visible">
   <path d="m17.234-13.297c0.64453-0.98828 1.4102-1.7422 2.2969-2.2656 0.89453-0.51953 1.875-0.78125 2.9375-0.78125 1.832 0 3.2266 0.57031 4.1875 1.7031 0.95703 1.125 1.4375 2.7656 1.4375 4.9219v9.7188h-5.125v-8.3125-0.39062c0.007812-0.13281 0.015625-0.32031 0.015625-0.5625 0-1.1328-0.16797-1.9531-0.5-2.4531-0.32422-0.50781-0.85938-0.76562-1.6094-0.76562-0.96875 0-1.7188 0.40234-2.25 1.2031-0.52344 0.79297-0.79297 1.9453-0.8125 3.4531v7.8281h-5.125v-8.3125c0-1.7695-0.15234-2.9062-0.45312-3.4062-0.30469-0.50781-0.84375-0.76562-1.625-0.76562-0.98047 0-1.7344 0.40234-2.2656 1.2031-0.53125 0.80469-0.79688 1.9492-0.79688 3.4375v7.8438h-5.125v-15.953h5.125v2.3281c0.625-0.89453 1.3438-1.5703 2.1562-2.0312 0.8125-0.45703 1.707-0.6875 2.6875-0.6875 1.1016 0 2.0781 0.26562 2.9219 0.79688s1.4844 1.2812 1.9219 2.25z"/>
  </symbol>
  <symbol id="q" overflow="visible">
   <path d="m18.484-9.7188v9.7188h-5.125v-7.4062c0-1.3945-0.03125-2.3516-0.09375-2.875-0.0625-0.51953-0.16797-0.90625-0.3125-1.1562-0.19922-0.33203-0.46875-0.58594-0.8125-0.76562-0.34375-0.1875-0.73438-0.28125-1.1719-0.28125-1.0625 0-1.9023 0.41406-2.5156 1.2344-0.60547 0.8125-0.90625 1.9492-0.90625 3.4062v7.8438h-5.0938v-22.156h5.0938v8.5312c0.76953-0.92578 1.5859-1.6094 2.4531-2.0469 0.86328-0.44531 1.8164-0.67188 2.8594-0.67188 1.8438 0 3.2383 0.57031 4.1875 1.7031 0.95703 1.125 1.4375 2.7656 1.4375 4.9219z"/>
  </symbol>
  <symbol id="p" overflow="visible">
   <path d="m2.6719-21.266h6.125l7.7344 14.578v-14.578h5.2031v21.266h-6.125l-7.7344-14.594v14.594h-5.2031z"/>
  </symbol>
  <symbol id="o" overflow="visible">
   <path d="m2.2812-6.2031v-9.75h5.125v1.5938c0 0.86719-0.007812 1.9531-0.015625 3.2656-0.011719 1.3047-0.015625 2.1719-0.015625 2.6094 0 1.2812 0.03125 2.2031 0.09375 2.7656 0.070312 0.5625 0.1875 0.97656 0.34375 1.2344 0.21875 0.33594 0.49219 0.58984 0.82812 0.76562 0.33203 0.17969 0.71875 0.26562 1.1562 0.26562 1.0625 0 1.8945-0.40625 2.5-1.2188 0.61328-0.8125 0.92188-1.9453 0.92188-3.4062v-7.875h5.0938v15.953h-5.0938v-2.3125c-0.77344 0.9375-1.5898 1.625-2.4531 2.0625-0.85547 0.4375-1.7969 0.65625-2.8281 0.65625-1.8438 0-3.25-0.5625-4.2188-1.6875-0.96094-1.1328-1.4375-2.7734-1.4375-4.9219z"/>
  </symbol>
  <symbol id="n" overflow="visible">
   <path d="m18.484-9.7188v9.7188h-5.125v-7.4375c0-1.375-0.03125-2.3203-0.09375-2.8438-0.0625-0.51953-0.16797-0.90625-0.3125-1.1562-0.19922-0.33203-0.46875-0.58594-0.8125-0.76562-0.34375-0.1875-0.73438-0.28125-1.1719-0.28125-1.0625 0-1.9023 0.41406-2.5156 1.2344-0.60547 0.8125-0.90625 1.9492-0.90625 3.4062v7.8438h-5.0938v-15.953h5.0938v2.3281c0.76953-0.92578 1.5859-1.6094 2.4531-2.0469 0.86328-0.44531 1.8164-0.67188 2.8594-0.67188 1.8438 0 3.2383 0.57031 4.1875 1.7031 0.95703 1.125 1.4375 2.7656 1.4375 4.9219z"/>
  </symbol>
  <symbol id="m" overflow="visible">
   <path d="m2.6719-21.266h9.1094c2.707 0 4.7852 0.60547 6.2344 1.8125 1.4453 1.1992 2.1719 2.9062 2.1719 5.125 0 2.2305-0.72656 3.9492-2.1719 5.1562-1.4492 1.1992-3.5273 1.7969-6.2344 1.7969h-3.625v7.375h-5.4844zm5.4844 3.9688v5.9375h3.0469c1.0625 0 1.8789-0.25391 2.4531-0.76562 0.58203-0.51953 0.875-1.2539 0.875-2.2031 0-0.94531-0.29297-1.6758-0.875-2.1875-0.57422-0.51953-1.3906-0.78125-2.4531-0.78125z"/>
  </symbol>
  <symbol id="l" overflow="visible">
   <path d="m2.4531-15.953h5.0938v15.672c0 2.1328-0.51562 3.7656-1.5469 4.8906-1.0234 1.125-2.5078 1.6875-4.4531 1.6875h-2.5156v-3.3438h0.89062c0.96875 0 1.6289-0.21875 1.9844-0.65625 0.36328-0.4375 0.54688-1.2969 0.54688-2.5781zm0-6.2031h5.0938v4.1562h-5.0938z"/>
  </symbol>
  <symbol id="k" overflow="visible">
   <path d="m15.344-15.453v4.1562c-0.69922-0.46875-1.3984-0.81641-2.0938-1.0469-0.69922-0.22656-1.4219-0.34375-2.1719-0.34375-1.4297 0-2.5391 0.41797-3.3281 1.25-0.79297 0.82422-1.1875 1.9805-1.1875 3.4688 0 1.5 0.39453 2.668 1.1875 3.5 0.78906 0.82422 1.8984 1.2344 3.3281 1.2344 0.80078 0 1.5547-0.11719 2.2656-0.35938 0.71875-0.23828 1.3828-0.58594 2-1.0469v4.1719c-0.80469 0.29297-1.6172 0.50781-2.4375 0.65625-0.8125 0.14453-1.6367 0.21875-2.4688 0.21875-2.875 0-5.125-0.73438-6.75-2.2031-1.625-1.4766-2.4375-3.5352-2.4375-6.1719 0-2.625 0.8125-4.6758 2.4375-6.1562 1.625-1.4766 3.875-2.2188 6.75-2.2188 0.83203 0 1.6562 0.078125 2.4688 0.23438 0.8125 0.14844 1.625 0.36719 2.4375 0.65625z"/>
  </symbol>
 </defs>
 <g>
  <path d="m285 276.09c29.184-48.789 84.5-83.457 126.75-120.03 22.727-19.672 47.996-36.465 72.309-54.082 17.863-12.949 37.387-40.461 58.586-24.973 2.1719 1.582 28.578 16.414 27.113 17.441-7.6836 5.3945-14.723 11.785-21.711 18.012-20.797 18.566-38.953 40.059-58.699 59.703-40.105 39.922-89.086 70.414-130.25 109.47-3.418 3.25 1.7461 8.3867 5.1523 5.1641 34.535-32.766 72.367-61.555 109.76-90.918 38.605-30.332 66.336-71.902 106.8-100.31 2.0664-1.4531 2.6484-4.9805 0-6.3008-17.75-8.7773-34.219-17.109-49.152-30.473-1.5508-1.3828-3.6094-1.3711-5.1641 0-42.871 38.09-91.84 68.75-135.8 105.64-38.406 32.23-85.809 64.184-112 107.96-2.4141 4.0508 3.8945 7.7148 6.3008 3.6836z"/>
  <path d="m213.88 368.11c-21.996 18.754-46.48 33.844-62.656 58.391-0.86328 1.3164-0.58203 3.3594 0.57812 4.4219 11.578 10.645 26.027 16.516 38.426 26.074 1.6797 1.2969 3.9492 0.13281 4.9883-1.3125 26.625-37.035 57.348-69.754 96.254-94.039 3.9766-2.4844 0.32031-8.7969-3.6797-6.3008-34.656 21.637-63.047 49.793-88.066 81.957-7.0156 9.0234-8.207 10.988-18.305 4.8086-12-7.3438-23.496-14.938-10.137-29.387 13.953-15.098 32.152-26.152 47.75-39.449 3.5859-3.0586-1.6016-8.1914-5.1523-5.1641z"/>
  <path d="m148.63 434.03c-4.4453 12.211-4.7305 25.23-9.9219 37.223-5.6992 13.148-15.918 24.277-24.617 35.438-2.3672 3.0391 0.625 8.1367 4.4141 5.7266 27.469-17.43 44.02-47.43 74.281-60.969 4.2812-1.918 0.57812-8.2031-3.6797-6.3008-30.387 13.598-46.789 43.523-74.281 60.969 1.4766 1.9062 2.9453 3.8164 4.4141 5.7266 9.2852-11.906 18.871-23.402 25.762-36.918 6.2188-12.203 6.0273-26.234 10.656-38.965 1.6172-4.4141-5.4297-6.3086-7.0273-1.9297z"/>
  <path d="m116.48 278.81c-6.1875 27.855 8.0859 53.375 10.961 80.797 0.15234 1.4648 0.98438 3.2852 2.6758 3.5156 19.094 2.625 37.781 0.76562 56.934-0.64062 26.852-1.9727 53.797-0.4375 80.738-2.7188 55.75-4.707 110.6-10.191 166.67-9.0703 33.922 0.67578 77.07 12.688 108.48-4.6953 19.191-10.621 11.828-53.082 10.867-69.547-0.11719-1.9766-1.5742-3.6523-3.6445-3.6445-16.293 0.039062-31.926 2.6406-47.934 5.4258-26.289 4.5625-52.582 4.1367-79.152 3.4766-46.211-1.1484-91.992-2.1133-138.14 1.5039-23.539 1.8438-155.38 30.969-161.42-3.2852-0.81641-4.625-7.8477-2.6602-7.0273 1.9375 6.0781 34.469 91.223 18.41 112.84 15.652 40.25-5.1406 79.801-9.3281 120.43-9.9531 47.75-0.73438 97.43 7.0156 144.79-0.72266 12.488-2.0469 24.914-4.293 37.461-5.9688 14.961-2 14.922 1.1484 15.562 14.281 1.5352 31.348-7.8164 49.922-42.566 51.754-49.258 2.6016-99.043-4.7852-148.68-2.293-50.418 2.5391-100.35 11.562-150.94 10.242-8.1367-0.21094-70.281 8.0898-71.418-2.7812-2.5625-24.477-16.055-45.996-10.43-71.328 1.0117-4.5781-6.0195-6.5273-7.0391-1.9375z"/>
  <path d="m269.49 292.71c4.2891-7.4883 9.3633-17.012 17.773-20.504 4.2773-1.7773 2.4023-8.8359-1.9375-7.0273-10.504 4.3594-16.699 14.363-22.137 23.852-2.3398 4.0898 3.9688 7.7578 6.3008 3.6797z"/>
  <path d="m220.71 371.42c1.9258-4.5547 5.0273-8.2617 10.012-9.4023 4.5859-1.0547 2.6367-8.0859-1.9375-7.0273-6.6562 1.5273-11.754 6.5742-14.375 12.758-0.77734 1.8242-0.56641 3.8906 1.3125 4.9883 1.5469 0.89844 4.207 0.51172 4.9883-1.3164z"/>
  <path d="m150.85 330.64c2.4492 7.3555 4.7539 14.949 8.1211 21.945 2.043 4.2422 8.3281 0.53516 6.3008-3.6797-3.0859-6.418-5.1406-13.457-7.3906-20.199-1.4805-4.4453-8.5273-2.543-7.0312 1.9336z"/>
  <path d="m157.5 348.38c1.0195 4.0898 2.0234 8.1836 3.3242 12.191 1.4453 4.457 8.4883 2.5508 7.0273-1.9375-1.3086-4.0117-2.3086-8.1094-3.3242-12.191-1.1367-4.5664-8.1641-2.6289-7.0273 1.9375z"/>
  <path d="m198.52 340.62c1.1562 6.4883 3.1328 12.734 5.5469 18.848 1.7031 4.3242 8.7539 2.4453 7.0273-1.9375-2.4141-6.125-4.3867-12.359-5.5469-18.848-0.82031-4.625-7.8438-2.6602-7.0273 1.9375z"/>
  <path d="m252.1 328.18c4.0781 8.5039 6.1602 17.664 7.2695 26.992 0.54687 4.6094 7.8477 4.668 7.293 0-1.2734-10.688-3.5859-20.93-8.2617-30.672-2.0352-4.2422-8.3242-0.53906-6.3008 3.6797z"/>
  <path d="m308.28 335.08c1.5859 4.7656 3.1797 9.543 4.4336 14.41 1.168 4.5508 8.2031 2.6211 7.0273-1.9375-1.2539-4.8633-2.8398-9.6406-4.4336-14.41-1.4805-4.4336-8.5234-2.5312-7.0273 1.9375z"/>
  <path d="m362.6 322.88c3.3242 7.9961 5.543 16.398 8.8711 24.391 1.7773 4.2773 8.8359 2.4023 7.0273-1.9375-3.3242-7.9961-5.543-16.391-8.8711-24.391-1.7734-4.2773-8.832-2.4062-7.0273 1.9375z"/>
  <path d="m424.55 330.79c0.085938 5.1992 1.1094 10.344 2.3516 15.375 1.1211 4.5625 8.1562 2.625 7.0273-1.9375-1.0898-4.4219-2.0195-8.8711-2.0898-13.441-0.066406-4.6992-7.3594-4.7031-7.2891 0.003906z"/>
  <path d="m463.49 320.66c3.7383 8.9648 6.4766 18.324 8.8594 27.727 1.1484 4.5547 8.1836 2.6211 7.0273-1.9375-2.3789-9.4023-5.1172-18.766-8.8594-27.727-1.7812-4.2773-8.8359-2.3984-7.0273 1.9375z"/>
  <path d="m512.26 329.82c-2.6758 7.8867-0.24609 17.574 2.2227 25.219 1.4336 4.457 8.4766 2.5547 7.0273-1.9375-2.0703-6.4414-4.4844-14.684-2.2227-21.344 1.5156-4.4688-5.5234-6.3633-7.0273-1.9375z"/>
  <path d="m226.61 289.91c-11.293-36.098 17.727-71.48 46.828-89.047 25.516-15.395 64.711-35.039 93.047-16.598 3.9531 2.5664 7.6055-3.7461 3.6797-6.3008-33.129-21.555-76.598 2.2344-106.11 20.043-29.965 18.078-55.551 58.445-44.48 93.836 1.3984 4.4766 8.4414 2.5703 7.0352-1.9336z"/>
  <path d="m430.42 231.33c9.9414 0.12109 16.625 14.793 20.551 22.219 4.5977 8.6797 8.2539 17.902 11.402 27.199 1.5 4.4258 8.5469 2.5312 7.0273-1.9375-4.1641-12.301-9.2852-24.379-15.836-35.605-4.918-8.4219-12.348-19.039-23.152-19.164-4.6992-0.0625-4.6953 7.2305 0.007813 7.2891z"/>
  <path d="m149.01 294.34c-17.219-55.219 37.602-122.88 76.559-156.21 53.234-45.547 160.45-72.102 214.48-15.418 3.25 3.4062 8.3945-1.7539 5.1523-5.1641-54.074-56.734-152.51-33.762-210.46 4.6016-48.051 31.805-112.04 112.28-92.746 174.12 1.3828 4.4766 8.4258 2.5625 7.0195-1.9336z"/>
  <path d="m489.32 183.52c18.859 6.8672 30.684 23.543 37.438 41.695 3.3555 9.0078 14.098 34.656 6.3984 43.125-3.1484 3.4766 1.9883 8.6445 5.1641 5.1641 10.219-11.254 0.63672-34.668-3.2734-46.625-7.2383-22.145-21.262-42.188-43.789-50.387-4.4297-1.6094-6.3203 5.4375-1.9375 7.0273z"/>
  <path d="m498.36 180c-0.011719-2.7422-0.35156-4.875-2.1641-7.0117-3.0977-3.6289-7.9961 1.5469-5.1641 5.1641 3.5117 4.457 8.4219 7.2266 12.926 10.551 3.7852 2.793 7.4219-3.5391 3.6797-6.3008-4.0234-2.9688-8.3086-5.418-11.445-9.4102l-5.1641 5.1641c0-0.011719 0.035156 1.5117 0.035156 1.8477 0.023438 4.6953 7.3164 4.7031 7.2969-0.003906z"/>
  <path d="m142.9 281.82c5.8867-2.793 12.703-4.0664 19.082-5.1797 4.625-0.80469 2.6602-7.8281-1.9375-7.0273-7.0742 1.2305-14.309 2.8125-20.824 5.9102-4.2422 2.0117-0.54297 8.3008 3.6797 6.2969z"/>
  <path d="m154.22 222.32c10.309-4.2891 21.223-5.3359 32.289-5.418 4.7031-0.035156 4.707-7.3281 0-7.293-11.656 0.082031-23.375 1.1562-34.223 5.6836-4.2812 1.7773-2.4062 8.8359 1.9336 7.0273z"/>
  <path d="m197.73 161.35c8.0547 1.2383 15.309 5.1641 21.676 10.145 3.6523 2.8594 8.8555-2.2617 5.1523-5.1641-7.3281-5.7344-15.559-10.582-24.891-12.016-4.5977-0.70312-6.5703 6.3203-1.9375 7.0352z"/>
  <path d="m263.77 112.73c6.4102 5.3945 12.426 11.234 18.84 16.629 3.5703 3.0039 8.7617-2.1289 5.1523-5.1641-6.418-5.3906-12.43-11.23-18.84-16.629-3.5703-3.0039-8.7578 2.1328-5.1523 5.1641z"/>
  <path d="m328.23 93.391c2.1055 6.5781 3.0859 13.492 5.543 19.957 1.6523 4.3516 8.6992 2.4688 7.0273-1.9375-2.4492-6.4648-3.4297-13.383-5.543-19.957-1.4258-4.4609-8.4727-2.5547-7.0273 1.9375z"/>
  <path d="m404.73 101.43c-1.2148 7.1992-4.5625 13.727-9.043 19.449-2.8594 3.6641 2.2617 8.8594 5.1641 5.1641 5.2383-6.7031 9.4805-14.188 10.91-22.676 0.77734-4.5977-6.2461-6.5703-7.0312-1.9375z"/>
  <path d="m509.13 204.08c-3.8203 0.32812-7.0469 2.9336-9.9648 5.2148-3.6289 2.8359-7.082 5.9102-10.348 9.1523-3.332 3.3203 1.8242 8.4766 5.1641 5.1641 2.6133-2.6094 5.3594-5.082 8.1953-7.4414 1.6328-1.3594 5.3672-4.6562 6.9531-4.7891 4.6484-0.39844 4.6875-7.6953 0-7.3008z"/>
  <path d="m520.07 255.58c5.7695-2.2734 11.633-4.1602 17.887-4.3008 4.6953-0.10938 4.707-7.4023 0-7.293-6.918 0.15625-13.43 2.043-19.82 4.5625-4.3242 1.7031-2.4453 8.7578 1.9336 7.0312z"/>
  <path d="m509.5 207.35c1.3086 1.5039-0.91406 2.8711 0.62891 1.9883 0.71094-0.41016 1.5156-0.64844 2.293-0.91016 2.1289-0.71094 4.3516-1.1797 6.5508-1.6289 4.6094-0.9375 2.6484-7.9688-1.9375-7.0273-5.3477 1.0977-19.703 4.6602-12.688 12.746 3.082 3.5469 8.2188-1.6328 5.1523-5.168z"/>
  <path d="m451.67 123.6c-1.582-4.1641-4.4805-7.3672-7.582-10.484-3.3242-3.3242-8.4805 1.8242-5.1641 5.1641 2.125 2.125 4.6211 4.3867 5.7109 7.2578 1.6562 4.3594 8.7109 2.4688 7.0352-1.9375z"/>
  <path d="m360.93 234.69c17.418-14.711 32.34-31.934 48.785-47.664 15.406-14.742 35.363-24.145 50.996-38.809 3.4414-3.2266-1.7266-8.375-5.1523-5.1641-15.656 14.688-34.422 25.27-50.996 38.809-17.539 14.332-31.414 32.988-48.785 47.664-3.5977 3.0469 1.5898 8.1797 5.1523 5.1641z"/>
  <path d="m487.32 126.04c8.2422-10.109 20.062-16.035 30.293-23.816 3.6914-2.8047 0.0625-9.1484-3.6797-6.3008-10.703 8.1484-23.148 14.387-31.773 24.953-2.9453 3.6172 2.1836 8.8047 5.1602 5.1641z"/>
  <path d="m539.8 57.879c10.949-5.9492 23.684-3.75 32.852 4.4336 9.3398 8.3242 8.6875 19.723-0.6875 27.535-3.6094 3.0156 1.5742 8.1445 5.1641 5.1641 12.262-10.219 12.355-25.254 1.7891-36.766-10.844-11.812-28.996-14.152-42.793-6.6602-4.1406 2.2383-0.46094 8.5391 3.6758 6.293z"/>
  <path d="m540 57.676c0.79297-1.457 1.7383-2.5156 3.5-2.6211 4.6719-0.28516 4.7031-7.5781 0-7.293-4.3125 0.26172-7.7227 2.4258-9.8008 6.2305-2.25 4.1328 4.0547 7.8125 6.3008 3.6836z"/>
  <path d="m525.4 62.125c-1.7656 1.668-3.7578 2.7891-5.9141 3.8633l4.9883 4.9883c2.3555-3.4141 5.3789-6.3164 8.3086-9.2383 3.3242-3.332-1.832-8.4883-5.1641-5.1641-3.3711 3.3828-6.707 6.7773-9.4453 10.723-2.2383 3.2383 1.9844 6.4922 4.9883 4.9883 2.7188-1.3594 5.1758-2.9102 7.3984-5 3.4258-3.2344-1.7422-8.375-5.1602-5.1602z"/>
  <path d="m535.56 63.223c0.81641-1.6094 1.5234-3.2969 3.1328-4.2422 4.0586-2.3672 0.39063-8.668-3.6797-6.3008-2.7578 1.6055-4.3477 4.0703-5.75 6.8594-2.1172 4.1914 4.168 7.8828 6.2969 3.6836z"/>
  <path d="m212.39 360.9c-9.9297 5.1914-18.043 13.395-24.594 22.371-2.7773 3.8047 3.5508 7.4375 6.3008 3.6797 5.8164-7.9688 13.184-15.16 21.973-19.75 4.1719-2.1836 0.48828-8.4727-3.6797-6.3008z"/>
  
 </g>
</svg>
